<svg width="874.41787109375px" height="122px" xmlns="http://www.w3.org/2000/svg" viewBox="-187.208935546875 14 874.41787109375 122" style="background: rgba(0, 0, 0, 0);" preserveAspectRatio="xMidYMid"><defs><linearGradient id="editing-gradient-gradient" x1="0" x2="1" y1="0.5" y2="0.5" gradientUnits="objectBoundingBox"><stop offset="0" stop-color="#0017ff"></stop><stop offset="1" stop-color="rgba(13.620619946091638%,14.557091836734681%,73.21428571428572%,0.719)"></stop></linearGradient></defs><g><g transform="translate(-63.70454931259155, 104.79000282287598)"><path d="M2.69-39.68L2.69-39.68L2.69-39.68Q4.54-43.52 9.70-43.52L9.70-43.52L9.70-43.52Q14.85-43.52 17.25-40.54L17.25-40.54L17.25-40.54Q19.65-37.57 19.65-30.72L19.65-30.72L19.65-7.87L35.20-42.18L42.82-42.18L22.91 0L7.94 0L6.02-30.72L6.02-30.72Q5.82-34.11 4.90-36.42L4.90-36.42L4.90-36.42Q3.97-38.72 2.69-39.68ZM55.62-3.52L55.62-3.52L55.62-3.52Q53.63 1.28 47.30 1.28L47.30 1.28L47.30 1.28Q44.03 1.28 41.98-0.96L41.98-0.96L41.98-0.96Q40.26-2.94 40.26-4.93L40.26-4.93L40.26-4.93Q40.26-10.11 42.62-20.22L42.62-20.22L44.99-32.64L57.98-33.92L54.08-13.70L54.08-13.70Q52.99-8.96 52.99-7.30L52.99-7.30L52.99-7.30Q52.99-3.65 55.62-3.52ZM46.14-41.54L46.14-41.54L46.14-41.54Q46.14-44.03 48.22-45.38L48.22-45.38L48.22-45.38Q50.30-46.72 53.31-46.72L53.31-46.72L53.31-46.72Q56.32-46.72 58.14-45.38L58.14-45.38L58.14-45.38Q59.97-44.03 59.97-41.54L59.97-41.54L59.97-41.54Q59.97-39.04 57.95-37.76L57.95-37.76L57.95-37.76Q55.94-36.48 52.93-36.48L52.93-36.48L52.93-36.48Q49.92-36.48 48.03-37.76L48.03-37.76L48.03-37.76Q46.14-39.04 46.14-41.54ZM81.09-17.98L81.09-17.98L81.09-17.98Q83.39-22.08 83.39-26.24L83.39-26.24L83.39-26.24Q83.39-28.99 81.41-28.99L81.41-28.99L81.41-28.99Q79.87-28.99 78.27-26.37L78.27-26.37L78.27-26.37Q76.61-23.74 76.10-20.35L76.10-20.35L72.77 0L59.52 1.28L66.05-32.64L76.61-33.92L75.46-27.46L75.46-27.46Q78.59-33.92 85.63-33.92L85.63-33.92L85.63-33.92Q89.34-33.92 91.36-32L91.36-32L91.36-32Q93.38-30.08 93.38-26.14L93.38-26.14L93.38-26.14Q93.38-22.21 90.78-19.71L90.78-19.71L90.78-19.71Q88.19-17.22 83.78-17.22L83.78-17.22L83.78-17.22Q81.86-17.22 81.09-17.98ZM95.42-6.40L95.42-6.40L95.42-6.40Q95.42-8.13 96.32-12.48L96.32-12.48L99.71-29.76L95.94-29.76L96.19-31.68L96.19-31.68Q103.87-33.98 111.30-39.62L111.30-39.62L114.37-39.62L112.83-32.64L117.82-32.64L117.25-29.76L112.32-29.76L109.06-12.48L109.06-12.48Q108.22-8.51 108.22-7.17L108.22-7.17L108.22-7.17Q108.22-4.10 110.91-3.46L110.91-3.46L110.91-3.46Q110.27-1.28 107.97 0L107.97 0L107.97 0Q105.66 1.28 102.40 1.28L102.40 1.28L102.40 1.28Q99.14 1.28 97.28-0.77L97.28-0.77L97.28-0.77Q95.42-2.82 95.42-6.40ZM138.05-2.69L138.05-2.69L138.05-2.69Q134.98 1.28 127.36 1.28L127.36 1.28L127.36 1.28Q123.39 1.28 120.51-1.12L120.51-1.12L120.51-1.12Q117.63-3.52 117.63-6.98L117.63-6.98L117.63-6.98Q117.63-8.90 117.82-9.86L117.82-9.86L122.11-32.64L135.10-33.92L130.43-9.22L130.43-9.22Q130.18-7.81 130.18-6.98L130.18-6.98L130.18-6.98Q130.18-3.26 132.42-3.26L132.42-3.26L132.42-3.26Q134.91-3.26 136.70-6.66L136.70-6.66L136.70-6.66Q137.28-7.74 137.54-9.15L137.54-9.15L142.08-32.64L154.69-33.92L149.95-8.96L149.95-8.96Q149.76-8 149.76-6.98L149.76-6.98L149.76-6.98Q149.76-5.95 150.34-4.83L150.34-4.83L150.34-4.83Q150.91-3.71 152.77-3.46L152.77-3.46L152.77-3.46Q152.38-1.92 151.04-0.90L151.04-0.90L151.04-0.90Q148.22 1.28 145.18 1.28L145.18 1.28L145.18 1.28Q142.14 1.28 140.35 0.19L140.35 0.19L140.35 0.19Q138.56-0.90 138.05-2.69ZM160.67-1.92L160.67-1.92L160.67-1.92Q159.17-3.58 158.50-6.21L158.50-6.21L158.50-6.21Q157.82-8.83 157.82-13.12L157.82-13.12L157.82-13.12Q157.82-17.41 159.30-21.31L159.30-21.31L159.30-21.31Q160.77-25.22 163.46-28.03L163.46-28.03L163.46-28.03Q168.96-33.92 178.05-33.92L178.05-33.92L178.05-33.92Q181.31-33.92 183.68-32.83L183.68-32.83L194.62-33.92L189.89-8.96L189.89-8.96Q189.70-8.19 189.70-6.78L189.70-6.78L189.70-6.78Q189.70-5.38 190.56-4.48L190.56-4.48L190.56-4.48Q191.42-3.58 192.70-3.46L192.70-3.46L192.70-3.46Q192.06-1.28 189.73 0L189.73 0L189.73 0Q187.39 1.28 184.77 1.28L184.77 1.28L184.77 1.28Q182.14 1.28 180.38 0.29L180.38 0.29L180.38 0.29Q178.62-0.70 178.11-2.37L178.11-2.37L178.11-2.37Q177.09-0.77 174.91 0.26L174.91 0.26L174.91 0.26Q172.74 1.28 169.82 1.28L169.82 1.28L169.82 1.28Q166.91 1.28 164.54 0.51L164.54 0.51L164.54 0.51Q162.18-0.26 160.67-1.92ZM174.18-27.90L174.18-27.90L174.18-27.90Q173.44-26.75 172.80-24.80L172.80-24.80L172.80-24.80Q172.16-22.85 171.10-17.63L171.10-17.63L171.10-17.63Q170.05-12.42 170.05-8.70L170.05-8.70L170.05-8.70Q170.05-4.99 170.62-3.90L170.62-3.90L170.62-3.90Q171.20-2.82 172.22-2.82L172.22-2.82L172.22-2.82Q174.27-2.82 175.78-4.77L175.78-4.77L175.78-4.77Q177.28-6.72 177.86-10.18L177.86-10.18L181.25-28.93L181.25-28.93Q179.90-30.08 178.34-30.08L178.34-30.08L178.34-30.08Q176.77-30.08 175.84-29.57L175.84-29.57L175.84-29.57Q174.91-29.06 174.18-27.90ZM213.38-3.52L213.38-3.52L213.38-3.52Q211.39 1.28 205.06 1.28L205.06 1.28L205.06 1.28Q201.86 1.28 199.81-0.96L199.81-0.96L199.81-0.96Q198.14-2.82 198.14-4.93L198.14-4.93L198.14-4.93Q198.14-9.73 200.38-20.22L200.38-20.22L205.06-44.80L218.05-46.08L211.84-13.70L211.84-13.70Q210.75-8.96 210.75-7.30L210.75-7.30L210.75-7.30Q210.75-3.65 213.38-3.52ZM273.54-26.56L273.54-26.56L273.54-26.56Q273.54 0.70 243.97 0.70L243.97 0.70L243.97 0.70Q239.23 0.70 231.42-0.45L231.42-0.45L238.59-38.27L238.59-38.27Q239.10-40.83 239.42-42.30L239.42-42.30L239.42-42.30Q249.15-43.01 253.47-43.01L253.47-43.01L253.47-43.01Q257.79-43.01 261.76-42.11L261.76-42.11L261.76-42.11Q265.73-41.22 268.35-39.23L268.35-39.23L268.35-39.23Q273.54-35.33 273.54-26.56ZM260.35-28.93L260.35-28.93L260.35-28.93Q260.35-38.46 253.50-38.46L253.50-38.46L252.86-38.46L252.86-38.46Q252.54-38.46 252.22-38.40L252.22-38.40L245.63-4.03L245.63-4.03Q245.89-3.90 246.14-3.90L246.14-3.90L246.66-3.90L246.66-3.90Q249.02-3.90 251.49-5.38L251.49-5.38L251.49-5.38Q253.95-6.85 255.87-9.86L255.87-9.86L255.87-9.86Q260.35-16.83 260.35-28.93ZM279.58-1.92L279.58-1.92L279.58-1.92Q278.08-3.58 277.41-6.21L277.41-6.21L277.41-6.21Q276.74-8.83 276.74-13.12L276.74-13.12L276.74-13.12Q276.74-17.41 278.21-21.31L278.21-21.31L278.21-21.31Q279.68-25.22 282.37-28.03L282.37-28.03L282.37-28.03Q287.87-33.92 296.96-33.92L296.96-33.92L296.96-33.92Q300.22-33.92 302.59-32.83L302.59-32.83L313.54-33.92L308.80-8.96L308.80-8.96Q308.61-8.19 308.61-6.78L308.61-6.78L308.61-6.78Q308.61-5.38 309.47-4.48L309.47-4.48L309.47-4.48Q310.34-3.58 311.62-3.46L311.62-3.46L311.62-3.46Q310.98-1.28 308.64 0L308.64 0L308.64 0Q306.30 1.28 303.68 1.28L303.68 1.28L303.68 1.28Q301.06 1.28 299.30 0.29L299.30 0.29L299.30 0.29Q297.54-0.70 297.02-2.37L297.02-2.37L297.02-2.37Q296-0.77 293.82 0.26L293.82 0.26L293.82 0.26Q291.65 1.28 288.74 1.28L288.74 1.28L288.74 1.28Q285.82 1.28 283.46 0.51L283.46 0.51L283.46 0.51Q281.09-0.26 279.58-1.92ZM293.09-27.90L293.09-27.90L293.09-27.90Q292.35-26.75 291.71-24.80L291.71-24.80L291.71-24.80Q291.07-22.85 290.02-17.63L290.02-17.63L290.02-17.63Q288.96-12.42 288.96-8.70L288.96-8.70L288.96-8.70Q288.96-4.99 289.54-3.90L289.54-3.90L289.54-3.90Q290.11-2.82 291.14-2.82L291.14-2.82L291.14-2.82Q293.18-2.82 294.69-4.77L294.69-4.77L294.69-4.77Q296.19-6.72 296.77-10.18L296.77-10.18L300.16-28.93L300.16-28.93Q298.82-30.08 297.25-30.08L297.25-30.08L297.25-30.08Q295.68-30.08 294.75-29.57L294.75-29.57L294.75-29.57Q293.82-29.06 293.09-27.90ZM318.02-6.40L318.02-6.40L318.02-6.40Q318.02-8.13 318.91-12.48L318.91-12.48L322.30-29.76L318.53-29.76L318.78-31.68L318.78-31.68Q326.46-33.98 333.89-39.62L333.89-39.62L336.96-39.62L335.42-32.64L340.42-32.64L339.84-29.76L334.91-29.76L331.65-12.48L331.65-12.48Q330.82-8.51 330.82-7.17L330.82-7.17L330.82-7.17Q330.82-4.10 333.50-3.46L333.50-3.46L333.50-3.46Q332.86-1.28 330.56 0L330.56 0L330.56 0Q328.26 1.28 324.99 1.28L324.99 1.28L324.99 1.28Q321.73 1.28 319.87-0.77L319.87-0.77L319.87-0.77Q318.02-2.82 318.02-6.40ZM342.62-1.92L342.62-1.92L342.62-1.92Q341.12-3.58 340.45-6.21L340.45-6.21L340.45-6.21Q339.78-8.83 339.78-13.12L339.78-13.12L339.78-13.12Q339.78-17.41 341.25-21.31L341.25-21.31L341.25-21.31Q342.72-25.22 345.41-28.03L345.41-28.03L345.41-28.03Q350.91-33.92 360-33.92L360-33.92L360-33.92Q363.26-33.92 365.63-32.83L365.63-32.83L376.58-33.92L371.84-8.96L371.84-8.96Q371.65-8.19 371.65-6.78L371.65-6.78L371.65-6.78Q371.65-5.38 372.51-4.48L372.51-4.48L372.51-4.48Q373.38-3.58 374.66-3.46L374.66-3.46L374.66-3.46Q374.02-1.28 371.68 0L371.68 0L371.68 0Q369.34 1.28 366.72 1.28L366.72 1.28L366.72 1.28Q364.10 1.28 362.34 0.29L362.34 0.29L362.34 0.29Q360.58-0.70 360.06-2.37L360.06-2.37L360.06-2.37Q359.04-0.77 356.86 0.26L356.86 0.26L356.86 0.26Q354.69 1.28 351.78 1.28L351.78 1.28L351.78 1.28Q348.86 1.28 346.50 0.51L346.50 0.51L346.50 0.51Q344.13-0.26 342.62-1.92ZM356.13-27.90L356.13-27.90L356.13-27.90Q355.39-26.75 354.75-24.80L354.75-24.80L354.75-24.80Q354.11-22.85 353.06-17.63L353.06-17.63L353.06-17.63Q352-12.42 352-8.70L352-8.70L352-8.70Q352-4.99 352.58-3.90L352.58-3.90L352.58-3.90Q353.15-2.82 354.18-2.82L354.18-2.82L354.18-2.82Q356.22-2.82 357.73-4.77L357.73-4.77L357.73-4.77Q359.23-6.72 359.81-10.18L359.81-10.18L363.20-28.93L363.20-28.93Q361.86-30.08 360.29-30.08L360.29-30.08L360.29-30.08Q358.72-30.08 357.79-29.57L357.79-29.57L357.79-29.57Q356.86-29.06 356.13-27.90ZM421.31 1.28L421.31 1.28L421.31 1.28Q413.12 1.28 412.35-10.37L412.35-10.37L401.34-10.37L401.34-10.37Q400.06-7.42 399.17-4.86L399.17-4.86L397.50 0L388.54 0L408.70-42.24L422.46-42.24L425.15-11.14L425.15-11.14Q425.79-4.42 428.35-2.43L428.35-2.43L428.35-2.43Q426.50 1.28 421.31 1.28ZM406.85-23.17L403.33-15.04L412.16-15.04L411.39-31.49L411.39-33.22L406.85-23.17ZM459.14 1.28L459.14 1.28L459.14 1.28Q451.39 1.28 451.39-4.74L451.39-4.74L451.39-4.74Q451.46-6.40 451.97-9.22L451.97-9.22L453.12-15.10L453.12-15.10Q454.85-23.42 454.85-25.28L454.85-25.28L454.85-25.28Q454.85-28.99 452.67-28.99L452.67-28.99L452.67-28.99Q449.02-28.99 447.10-19.46L447.10-19.46L443.33 0L430.46 1.28L437.12-32.70L447.62-33.92L446.59-27.65L446.59-27.65Q449.60-33.92 458.82-33.92L458.82-33.92L458.82-33.92Q463.30-33.92 465.18-32.03L465.18-32.03L465.18-32.03Q467.07-30.14 467.07-25.92L467.07-25.92L467.07-25.92Q467.07-21.95 465.02-12.67L465.02-12.67L465.02-12.67Q464.06-8.51 464.06-6.94L464.06-6.94L464.06-6.94Q464.06-5.38 464.93-4.48L464.93-4.48L464.93-4.48Q465.79-3.58 467.07-3.46L467.07-3.46L467.07-3.46Q466.43-1.28 464.22 0L464.22 0L464.22 0Q462.02 1.28 459.14 1.28ZM474.98-1.92L474.98-1.92L474.98-1.92Q473.47-3.58 472.80-6.21L472.80-6.21L472.80-6.21Q472.13-8.83 472.13-13.12L472.13-13.12L472.13-13.12Q472.13-17.41 473.60-21.31L473.60-21.31L473.60-21.31Q475.07-25.22 477.76-28.03L477.76-28.03L477.76-28.03Q483.26-33.92 492.35-33.92L492.35-33.92L492.35-33.92Q495.62-33.92 497.98-32.83L497.98-32.83L508.93-33.92L504.19-8.96L504.19-8.96Q504.00-8.19 504.00-6.78L504.00-6.78L504.00-6.78Q504.00-5.38 504.86-4.48L504.86-4.48L504.86-4.48Q505.73-3.58 507.01-3.46L507.01-3.46L507.01-3.46Q506.37-1.28 504.03 0L504.03 0L504.03 0Q501.70 1.28 499.07 1.28L499.07 1.28L499.07 1.28Q496.45 1.28 494.69 0.29L494.69 0.29L494.69 0.29Q492.93-0.70 492.42-2.37L492.42-2.37L492.42-2.37Q491.39-0.77 489.22 0.26L489.22 0.26L489.22 0.26Q487.04 1.28 484.13 1.28L484.13 1.28L484.13 1.28Q481.22 1.28 478.85 0.51L478.85 0.51L478.85 0.51Q476.48-0.26 474.98-1.92ZM488.48-27.90L488.48-27.90L488.48-27.90Q487.74-26.75 487.10-24.80L487.10-24.80L487.10-24.80Q486.46-22.85 485.41-17.63L485.41-17.63L485.41-17.63Q484.35-12.42 484.35-8.70L484.35-8.70L484.35-8.70Q484.35-4.99 484.93-3.90L484.93-3.90L484.93-3.90Q485.50-2.82 486.53-2.82L486.53-2.82L486.53-2.82Q488.58-2.82 490.08-4.77L490.08-4.77L490.08-4.77Q491.58-6.72 492.16-10.18L492.16-10.18L495.55-28.93L495.55-28.93Q494.21-30.08 492.64-30.08L492.64-30.08L492.64-30.08Q491.07-30.08 490.14-29.57L490.14-29.57L490.14-29.57Q489.22-29.06 488.48-27.90ZM527.68-3.52L527.68-3.52L527.68-3.52Q525.70 1.28 519.36 1.28L519.36 1.28L519.36 1.28Q516.16 1.28 514.11-0.96L514.11-0.96L514.11-0.96Q512.45-2.82 512.45-4.93L512.45-4.93L512.45-4.93Q512.45-9.73 514.69-20.22L514.69-20.22L519.36-44.80L532.35-46.08L526.14-13.70L526.14-13.70Q525.06-8.96 525.06-7.30L525.06-7.30L525.06-7.30Q525.06-3.65 527.68-3.52ZM553.47-7.23L553.47-7.23L553.47-7.23Q550.14-3.78 544.06-3.78L544.06-3.78L544.06-3.78Q536.45-3.78 534.85-9.34L534.85-9.34L534.85-9.34Q534.34-11.01 534.34-12.86L534.34-12.86L534.34-12.86Q534.34-14.72 534.72-16.64L534.72-16.64L537.73-32.64L550.72-33.92L547.20-15.30L547.20-15.30Q547.07-14.46 546.88-13.57L546.88-13.57L546.88-13.57Q546.69-12.67 546.69-11.74L546.69-11.74L546.69-11.74Q546.69-10.82 547.01-10.21L547.01-10.21L547.01-10.21Q547.33-9.60 547.78-9.22L547.78-9.22L547.78-9.22Q548.54-8.70 549.92-8.70L549.92-8.70L549.92-8.70Q551.30-8.70 552.48-10.37L552.48-10.37L552.48-10.37Q553.66-12.03 554.24-14.91L554.24-14.91L557.76-32.64L570.37-33.92L565.57-8.77L565.57-8.77Q563.20 3.52 558.34 8.38L558.34 8.38L558.34 8.38Q555.84 10.88 552.61 11.87L552.61 11.87L552.61 11.87Q549.38 12.86 545.22 12.86L545.22 12.86L545.22 12.86Q538.50 12.86 534.66 10.75L534.66 10.75L534.66 10.75Q530.82 8.64 530.82 5.12L530.82 5.12L530.82 5.12Q530.82 2.50 532.80 0.99L532.80 0.99L532.80 0.99Q534.78-0.51 537.86-0.51L537.86-0.51L537.86-0.51Q540.54-0.51 542.59 0.64L542.59 0.64L542.59 0.64Q543.81 1.34 544.38 2.24L544.38 2.24L544.38 2.24Q542.91 3.52 542.91 5.63L542.91 5.63L542.91 5.63Q542.91 8.45 545.47 8.45L545.47 8.45L545.47 8.45Q549.70 8.45 552.13-1.28L552.13-1.28L552.13-1.28Q552.83-4.16 553.47-7.23ZM591.81-22.46L591.81-22.46L591.81-22.46Q592.70-24.83 592.70-26.88L592.70-26.88L592.70-26.88Q592.70-30.66 589.63-30.66L589.63-30.66L589.63-30.66Q588.03-30.66 586.72-29.22L586.72-29.22L586.72-29.22Q585.41-27.78 585.41-25.98L585.41-25.98L585.41-25.98Q585.41-24.70 586.43-23.68L586.43-23.68L586.43-23.68Q587.90-22.27 591.68-19.97L591.68-19.97L591.68-19.97Q595.46-17.66 596.90-15.78L596.90-15.78L596.90-15.78Q598.34-13.89 598.34-11.30L598.34-11.30L598.34-11.30Q598.34-8.70 597.09-6.34L597.09-6.34L597.09-6.34Q595.84-3.97 593.60-2.30L593.60-2.30L593.60-2.30Q588.80 1.28 581.12 1.28L581.12 1.28L581.12 1.28Q576.96 1.28 573.76-0.90L573.76-0.90L573.76-0.90Q570.56-3.01 570.56-5.50L570.56-5.50L570.56-5.50Q570.56-8 572.38-9.47L572.38-9.47L572.38-9.47Q574.21-10.94 576.90-10.94L576.90-10.94L576.90-10.94Q579.58-10.94 581.25-9.92L581.25-9.92L581.25-9.92Q580.42-7.81 580.42-6.40L580.42-6.40L580.42-6.40Q580.42-2.18 584.00-2.18L584.00-2.18L584.00-2.18Q585.54-2.18 586.56-3.14L586.56-3.14L586.56-3.14Q587.58-4.10 587.58-5.76L587.58-5.76L587.58-5.76Q587.58-9.02 582.08-12.48L582.08-12.48L582.08-12.48Q577.60-15.42 576.58-16.58L576.58-16.58L576.58-16.58Q574.85-18.62 574.85-21.18L574.85-21.18L574.85-21.18Q574.85-23.74 576.06-26.18L576.06-26.18L576.06-26.18Q577.28-28.61 579.52-30.34L579.52-30.34L579.52-30.34Q584.19-33.92 592.32-33.92L592.32-33.92L592.32-33.92Q596.48-33.92 598.94-32.26L598.94-32.26L598.94-32.26Q601.41-30.59 601.41-27.78L601.41-27.78L601.41-27.78Q601.41-24.96 599.71-23.36L599.71-23.36L599.71-23.36Q598.02-21.76 594.94-21.76L594.94-21.76L594.94-21.76Q592.83-21.76 591.81-22.46ZM604.80-6.40L604.80-6.40L604.80-6.40Q604.80-8.13 605.70-12.48L605.70-12.48L609.09-29.76L605.31-29.76L605.57-31.68L605.57-31.68Q613.25-33.98 620.67-39.62L620.67-39.62L623.74-39.62L622.21-32.64L627.20-32.64L626.62-29.76L621.70-29.76L618.43-12.48L618.43-12.48Q617.60-8.51 617.60-7.17L617.60-7.17L617.60-7.17Q617.60-4.10 620.29-3.46L620.29-3.46L620.29-3.46Q619.65-1.28 617.34 0L617.34 0L617.34 0Q615.04 1.28 611.78 1.28L611.78 1.28L611.78 1.28Q608.51 1.28 606.66-0.77L606.66-0.77L606.66-0.77Q604.80-2.82 604.80-6.40Z" fill="url(#editing-gradient-gradient)"></path></g></g><style>text {
  font-size: 64px;
  font-family: Arial Black;
  dominant-baseline: central;
  text-anchor: middle;
}</style></svg>